<svg width="36" height="36" viewBox="0 0 36 36" fill="none" xmlns="http://www.w3.org/2000/svg">
<path d="M18 33C14.525 32.125 11.6562 30.1313 9.39375 27.0187C7.13125 23.9062 6 20.45 6 16.65V7.5L18 3L30 7.5V16.65C30 20.45 28.8688 23.9062 26.6063 27.0187C24.3438 30.1313 21.475 32.125 18 33ZM18 29.85C20.6 29.025 22.75 27.375 24.45 24.9C26.15 22.425 27 19.675 27 16.65V9.5625L18 6.1875L9 9.5625V16.65C9 19.675 9.85 22.425 11.55 24.9C13.25 27.375 15.4 29.025 18 29.85Z" fill="#00142E"/>
<path d="M18 24C16.3222 24 14.9028 23.7417 13.7417 23.225C12.5806 22.7083 12 22.0778 12 21.3333V14.6667C12 13.9333 12.5861 13.3056 13.7583 12.7833C14.9306 12.2611 16.3444 12 18 12C19.6556 12 21.0694 12.2611 22.2417 12.7833C23.4139 13.3056 24 13.9333 24 14.6667V21.3333C24 22.0778 23.4194 22.7083 22.2583 23.225C21.0972 23.7417 19.6778 24 18 24ZM18 16.0167C18.9889 16.0167 19.9833 15.875 20.9833 15.5917C21.9833 15.3083 22.5444 15.0056 22.6667 14.6833C22.5444 14.3611 21.9861 14.0556 20.9917 13.7667C19.9972 13.4778 19 13.3333 18 13.3333C16.9889 13.3333 15.9972 13.475 15.025 13.7583C14.0528 14.0417 13.4889 14.35 13.3333 14.6833C13.4889 15.0167 14.0528 15.3222 15.025 15.6C15.9972 15.8778 16.9889 16.0167 18 16.0167ZM18 19.3333C18.4667 19.3333 18.9167 19.3111 19.35 19.2667C19.7833 19.2222 20.1972 19.1583 20.5917 19.075C20.9861 18.9917 21.3583 18.8889 21.7083 18.7667C22.0583 18.6444 22.3778 18.5056 22.6667 18.35V16.35C22.3778 16.5056 22.0583 16.6444 21.7083 16.7667C21.3583 16.8889 20.9861 16.9917 20.5917 17.075C20.1972 17.1583 19.7833 17.2222 19.35 17.2667C18.9167 17.3111 18.4667 17.3333 18 17.3333C17.5333 17.3333 17.0778 17.3111 16.6333 17.2667C16.1889 17.2222 15.7694 17.1583 15.375 17.075C14.9806 16.9917 14.6111 16.8889 14.2667 16.7667C13.9222 16.6444 13.6111 16.5056 13.3333 16.35V18.35C13.6111 18.5056 13.9222 18.6444 14.2667 18.7667C14.6111 18.8889 14.9806 18.9917 15.375 19.075C15.7694 19.1583 16.1889 19.2222 16.6333 19.2667C17.0778 19.3111 17.5333 19.3333 18 19.3333ZM18 22.6667C18.5111 22.6667 19.0306 22.6278 19.5583 22.55C20.0861 22.4722 20.5722 22.3694 21.0167 22.2417C21.4611 22.1139 21.8333 21.9694 22.1333 21.8083C22.4333 21.6472 22.6111 21.4833 22.6667 21.3167V19.6833C22.3778 19.8389 22.0583 19.9778 21.7083 20.1C21.3583 20.2222 20.9861 20.325 20.5917 20.4083C20.1972 20.4917 19.7833 20.5556 19.35 20.6C18.9167 20.6444 18.4667 20.6667 18 20.6667C17.5333 20.6667 17.0778 20.6444 16.6333 20.6C16.1889 20.5556 15.7694 20.4917 15.375 20.4083C14.9806 20.325 14.6111 20.2222 14.2667 20.1C13.9222 19.9778 13.6111 19.8389 13.3333 19.6833V21.3333C13.3889 21.5 13.5639 21.6611 13.8583 21.8167C14.1528 21.9722 14.5222 22.1139 14.9667 22.2417C15.4111 22.3694 15.9 22.4722 16.4333 22.55C16.9667 22.6278 17.4889 22.6667 18 22.6667Z" fill="#1890FF"/>
</svg>
