<svg width="151" height="35" viewBox="0 0 151 35" fill="none" xmlns="http://www.w3.org/2000/svg">
<path d="M13.5928 19.9131C14.0908 20.1943 14.5947 20.4492 15.1045 20.6777C15.6201 20.9004 16.1533 21.0908 16.7041 21.249C17.2549 21.4014 17.832 21.5186 18.4355 21.6006C19.0449 21.6826 19.6924 21.7236 20.3779 21.7236C21.2041 21.7236 21.9072 21.6709 22.4873 21.5654C23.0674 21.4541 23.5391 21.3047 23.9023 21.1172C24.2715 20.9238 24.5381 20.6953 24.7021 20.4316C24.8721 20.168 24.957 19.8809 24.957 19.5703C24.957 19.0723 24.749 18.6797 24.333 18.3926C23.917 18.0996 23.2754 17.9531 22.4082 17.9531C22.0273 17.9531 21.626 17.9795 21.2041 18.0322C20.7822 18.0791 20.3545 18.1318 19.9209 18.1904C19.4932 18.249 19.0684 18.3047 18.6465 18.3574C18.2305 18.4043 17.8379 18.4277 17.4688 18.4277C16.8535 18.4277 16.2617 18.3486 15.6934 18.1904C15.1309 18.0322 14.6299 17.7949 14.1904 17.4785C13.7568 17.1621 13.4111 16.7666 13.1533 16.292C12.8955 15.8174 12.7666 15.2637 12.7666 14.6309C12.7666 14.2559 12.8164 13.8838 12.916 13.5146C13.0215 13.1455 13.1855 12.7939 13.4082 12.46C13.6367 12.1201 13.9297 11.8066 14.2871 11.5195C14.6445 11.2266 15.0752 10.9746 15.5791 10.7637C16.0889 10.5527 16.6748 10.3887 17.3369 10.2715C18.0049 10.1484 18.7637 10.0869 19.6133 10.0869C20.2285 10.0869 20.8467 10.1221 21.4678 10.1924C22.0889 10.2568 22.6924 10.3506 23.2783 10.4736C23.8701 10.5967 24.4385 10.7461 24.9834 10.9219C25.5283 11.0918 26.0352 11.2822 26.5039 11.4932L25.2822 13.7432C24.8955 13.5732 24.4795 13.418 24.0342 13.2773C23.5889 13.1309 23.123 13.0049 22.6367 12.8994C22.1504 12.7939 21.6465 12.7119 21.125 12.6533C20.6094 12.5889 20.082 12.5566 19.543 12.5566C18.7754 12.5566 18.1426 12.6123 17.6445 12.7236C17.1523 12.835 16.7598 12.9785 16.4668 13.1543C16.1738 13.3242 15.9688 13.5176 15.8516 13.7344C15.7402 13.9453 15.6846 14.1562 15.6846 14.3672C15.6846 14.7773 15.8691 15.1143 16.2383 15.3779C16.6074 15.6357 17.1699 15.7646 17.9258 15.7646C18.2305 15.7646 18.5791 15.7441 18.9717 15.7031C19.3701 15.6562 19.7861 15.6064 20.2197 15.5537C20.6592 15.501 21.1045 15.4541 21.5557 15.4131C22.0127 15.3662 22.4551 15.3428 22.8828 15.3428C23.6914 15.3428 24.4062 15.4336 25.0273 15.6152C25.6543 15.7969 26.1787 16.0576 26.6006 16.3975C27.0225 16.7314 27.3418 17.1387 27.5586 17.6191C27.7754 18.0938 27.8838 18.627 27.8838 19.2188C27.8838 20.0098 27.6992 20.7158 27.3301 21.3369C26.9668 21.9521 26.4453 22.4736 25.7656 22.9014C25.0918 23.3232 24.2773 23.6455 23.3223 23.8682C22.3672 24.085 21.3037 24.1934 20.1318 24.1934C19.3584 24.1934 18.6025 24.1436 17.8643 24.0439C17.126 23.9502 16.417 23.8154 15.7373 23.6396C15.0635 23.458 14.4189 23.2441 13.8037 22.998C13.1943 22.7461 12.6289 22.4707 12.1074 22.1719L13.5928 19.9131ZM28.6938 18.7793C28.6938 18.0762 28.8373 17.4053 29.1245 16.7666C29.4116 16.1221 29.8246 15.5537 30.3637 15.0615C30.9028 14.5693 31.562 14.1768 32.3412 13.8838C33.1264 13.5908 34.017 13.4443 35.0131 13.4443C36.0034 13.4443 36.894 13.5938 37.685 13.8926C38.4819 14.1855 39.1557 14.5898 39.7065 15.1055C40.2631 15.6211 40.6879 16.2275 40.9809 16.9248C41.2797 17.6221 41.4291 18.3691 41.4291 19.166C41.4291 19.2656 41.4262 19.374 41.4204 19.4912C41.4204 19.6025 41.4145 19.7051 41.4028 19.7988H31.5942C31.7055 20.1094 31.8842 20.3936 32.1303 20.6514C32.3823 20.9092 32.6957 21.1318 33.0707 21.3193C33.4457 21.5068 33.8793 21.6533 34.3715 21.7588C34.8637 21.8584 35.4086 21.9082 36.0063 21.9082C36.6039 21.9082 37.1987 21.8467 37.7905 21.7236C38.3823 21.5947 38.9477 21.4336 39.4868 21.2402L40.3657 23.2266C40.0258 23.3848 39.6801 23.5254 39.3286 23.6484C38.9829 23.7656 38.6196 23.8652 38.2387 23.9473C37.8637 24.0234 37.4682 24.082 37.0522 24.123C36.642 24.1641 36.2084 24.1846 35.7514 24.1846C34.5854 24.1846 33.5629 24.0439 32.684 23.7627C31.8051 23.4814 31.0698 23.0977 30.478 22.6113C29.8862 22.125 29.4409 21.5537 29.142 20.8975C28.8432 20.2412 28.6938 19.5352 28.6938 18.7793ZM38.6694 17.7686C38.5756 17.4814 38.4291 17.2148 38.2299 16.9688C38.0366 16.7168 37.7934 16.5 37.5004 16.3184C37.2075 16.1309 36.8676 15.9844 36.4809 15.8789C36.0942 15.7734 35.6694 15.7207 35.2065 15.7207C34.7143 15.7207 34.2661 15.7764 33.8618 15.8877C33.4575 15.999 33.103 16.1484 32.7983 16.3359C32.4936 16.5234 32.2387 16.7402 32.0336 16.9863C31.8344 17.2324 31.6879 17.4932 31.5942 17.7686H38.6694ZM42.1688 18.8408C42.1688 18.0791 42.3065 17.3701 42.5819 16.7139C42.8632 16.0518 43.2704 15.4805 43.8036 15C44.3427 14.5137 44.9989 14.1328 45.7723 13.8574C46.5516 13.582 47.4393 13.4443 48.4354 13.4443C48.869 13.4443 49.3055 13.4707 49.745 13.5234C50.1845 13.5762 50.6063 13.6523 51.0106 13.752C51.4208 13.8457 51.8046 13.96 52.162 14.0947C52.5194 14.2236 52.83 14.3672 53.0936 14.5254L51.8895 16.4854C51.3212 16.2217 50.7821 16.0283 50.2723 15.9053C49.7684 15.7822 49.2557 15.7207 48.7343 15.7207C48.1366 15.7207 47.6005 15.7998 47.1259 15.958C46.6512 16.1104 46.247 16.3271 45.913 16.6084C45.5848 16.8838 45.3329 17.2119 45.1571 17.5928C44.9872 17.9678 44.9022 18.3779 44.9022 18.8232C44.9022 19.2686 44.993 19.6816 45.1747 20.0625C45.3622 20.4375 45.6229 20.7627 45.9569 21.0381C46.2968 21.3076 46.704 21.5215 47.1786 21.6797C47.6591 21.832 48.1923 21.9082 48.7782 21.9082C49.4227 21.9082 50.0292 21.8174 50.5975 21.6357C51.1718 21.4541 51.705 21.2109 52.1971 20.9062L53.4012 22.8662C53.0907 23.0537 52.7538 23.2295 52.3905 23.3936C52.0272 23.5518 51.6376 23.6895 51.2216 23.8066C50.8114 23.9238 50.3778 24.0146 49.9208 24.0791C49.4696 24.1494 49.0009 24.1846 48.5145 24.1846C47.5243 24.1846 46.6366 24.0498 45.8514 23.7803C45.0663 23.5107 44.4012 23.1387 43.8563 22.6641C43.3114 22.1836 42.8925 21.6182 42.5995 20.9678C42.3124 20.3174 42.1688 19.6084 42.1688 18.8408ZM54.765 13.6201H57.3577V18.6826C57.3577 19.1631 57.4105 19.6025 57.5159 20.001C57.6214 20.3936 57.8001 20.7305 58.0521 21.0117C58.3099 21.293 58.6497 21.5127 59.0716 21.6709C59.4993 21.8232 60.0296 21.8994 60.6624 21.8994C60.9613 21.8994 61.263 21.8672 61.5677 21.8027C61.8782 21.7383 62.1741 21.6504 62.4554 21.5391C62.7366 21.4219 62.9974 21.2842 63.2376 21.126C63.4837 20.9678 63.6946 20.7949 63.8704 20.6074V13.6201H66.472V24H63.8704V23.1123C63.2318 23.4932 62.5902 23.7656 61.9456 23.9297C61.3011 24.0938 60.6888 24.1758 60.1087 24.1758C59.1595 24.1758 58.345 24.0615 57.6654 23.833C56.9915 23.6045 56.4378 23.2734 56.0042 22.8398C55.5765 22.4004 55.263 21.8643 55.0638 21.2314C54.8646 20.5928 54.765 19.8662 54.765 19.0518V13.6201ZM68.3367 13.6289H70.9382V15.123C71.5125 14.6953 72.1189 14.3262 72.7576 14.0156C73.3962 13.7051 74.032 13.4678 74.6648 13.3037L75.4295 15.6855C74.4275 15.7852 73.5457 16.0107 72.7839 16.3623C72.0281 16.708 71.4128 17.1973 70.9382 17.8301V24H68.3367V13.6289ZM75.4396 18.7793C75.4396 18.0762 75.5832 17.4053 75.8703 16.7666C76.1574 16.1221 76.5705 15.5537 77.1096 15.0615C77.6486 14.5693 78.3078 14.1768 79.0871 13.8838C79.8723 13.5908 80.7629 13.4443 81.759 13.4443C82.7492 13.4443 83.6398 13.5938 84.4309 13.8926C85.2277 14.1855 85.9016 14.5898 86.4523 15.1055C87.009 15.6211 87.4338 16.2275 87.7268 16.9248C88.0256 17.6221 88.175 18.3691 88.175 19.166C88.175 19.2656 88.1721 19.374 88.1662 19.4912C88.1662 19.6025 88.1604 19.7051 88.1486 19.7988H78.34C78.4514 20.1094 78.6301 20.3936 78.8762 20.6514C79.1281 20.9092 79.4416 21.1318 79.8166 21.3193C80.1916 21.5068 80.6252 21.6533 81.1174 21.7588C81.6096 21.8584 82.1545 21.9082 82.7521 21.9082C83.3498 21.9082 83.9445 21.8467 84.5363 21.7236C85.1281 21.5947 85.6936 21.4336 86.2326 21.2402L87.1115 23.2266C86.7717 23.3848 86.426 23.5254 86.0744 23.6484C85.7287 23.7656 85.3654 23.8652 84.9846 23.9473C84.6096 24.0234 84.2141 24.082 83.798 24.123C83.3879 24.1641 82.9543 24.1846 82.4973 24.1846C81.3312 24.1846 80.3088 24.0439 79.4299 23.7627C78.551 23.4814 77.8156 23.0977 77.2238 22.6113C76.632 22.125 76.1867 21.5537 75.8879 20.8975C75.5891 20.2412 75.4396 19.5352 75.4396 18.7793ZM85.4152 17.7686C85.3215 17.4814 85.175 17.2148 84.9758 16.9688C84.7824 16.7168 84.5393 16.5 84.2463 16.3184C83.9533 16.1309 83.6135 15.9844 83.2268 15.8789C82.84 15.7734 82.4152 15.7207 81.9523 15.7207C81.4602 15.7207 81.0119 15.7764 80.6076 15.8877C80.2033 15.999 79.8488 16.1484 79.5441 16.3359C79.2395 16.5234 78.9846 16.7402 78.7795 16.9863C78.5803 17.2324 78.4338 17.4932 78.34 17.7686H85.4152Z" fill="#00142E"/>
<path d="M88.027 10.2627H91.112L95.4274 20.7393L99.7428 10.2627H102.828L96.8073 24H94.0475L88.027 10.2627ZM102.636 20.7305C102.636 20.2324 102.744 19.7783 102.961 19.3682C103.178 18.958 103.503 18.6064 103.937 18.3135C104.37 18.0146 104.909 17.7861 105.554 17.6279C106.204 17.4639 106.96 17.3818 107.821 17.3818C108.46 17.3818 109.131 17.4287 109.834 17.5225C110.543 17.6162 111.273 17.7598 112.023 17.9531C111.993 17.625 111.894 17.3232 111.724 17.0479C111.554 16.7666 111.316 16.5264 111.012 16.3271C110.713 16.1221 110.35 15.9639 109.922 15.8525C109.5 15.7412 109.02 15.6855 108.481 15.6855C108.188 15.6855 107.865 15.7031 107.514 15.7383C107.162 15.7734 106.799 15.8262 106.424 15.8965C106.049 15.9668 105.677 16.0547 105.308 16.1602C104.944 16.2656 104.605 16.3916 104.288 16.5381L103.497 14.4023C103.89 14.2617 104.309 14.1328 104.754 14.0156C105.205 13.8984 105.665 13.7988 106.134 13.7168C106.603 13.6289 107.071 13.5615 107.54 13.5146C108.009 13.4678 108.463 13.4443 108.902 13.4443C110.842 13.4443 112.283 13.9395 113.227 14.9297C114.17 15.9199 114.642 17.4375 114.642 19.4824V24H112.04V23.0244C111.771 23.1826 111.475 23.332 111.152 23.4727C110.836 23.6133 110.49 23.7363 110.115 23.8418C109.74 23.9473 109.336 24.0293 108.902 24.0879C108.475 24.1523 108.021 24.1846 107.54 24.1846C106.732 24.1846 106.02 24.0967 105.404 23.9209C104.795 23.7451 104.285 23.502 103.875 23.1914C103.465 22.8809 103.154 22.5176 102.943 22.1016C102.738 21.6797 102.636 21.2227 102.636 20.7305ZM105.378 20.6426C105.378 20.8125 105.422 20.9766 105.51 21.1348C105.598 21.2871 105.738 21.4248 105.932 21.5479C106.125 21.665 106.371 21.7617 106.67 21.8379C106.975 21.9082 107.341 21.9434 107.769 21.9434C108.226 21.9434 108.668 21.9023 109.096 21.8203C109.524 21.7383 109.922 21.6299 110.291 21.4951C110.66 21.3604 110.994 21.2051 111.293 21.0293C111.592 20.8535 111.841 20.6719 112.04 20.4844V20.0273C111.642 19.916 111.246 19.8223 110.854 19.7461C110.467 19.6699 110.095 19.6113 109.737 19.5703C109.386 19.5234 109.052 19.4912 108.735 19.4736C108.425 19.4561 108.152 19.4473 107.918 19.4473C107.432 19.4473 107.027 19.4795 106.705 19.5439C106.383 19.6084 106.122 19.6963 105.923 19.8076C105.724 19.9131 105.583 20.0391 105.501 20.1855C105.419 20.332 105.378 20.4844 105.378 20.6426ZM116.647 13.6201H119.24V18.6826C119.24 19.1631 119.292 19.6025 119.398 20.001C119.503 20.3936 119.682 20.7305 119.934 21.0117C120.192 21.293 120.532 21.5127 120.954 21.6709C121.381 21.8232 121.912 21.8994 122.544 21.8994C122.843 21.8994 123.145 21.8672 123.45 21.8027C123.76 21.7383 124.056 21.6504 124.337 21.5391C124.619 21.4219 124.879 21.2842 125.12 21.126C125.366 20.9678 125.577 20.7949 125.752 20.6074V13.6201H128.354V24H125.752V23.1123C125.114 23.4932 124.472 23.7656 123.828 23.9297C123.183 24.0938 122.571 24.1758 121.991 24.1758C121.042 24.1758 120.227 24.0615 119.547 23.833C118.874 23.6045 118.32 23.2734 117.886 22.8398C117.459 22.4004 117.145 21.8643 116.946 21.2314C116.747 20.5928 116.647 19.8662 116.647 19.0518V13.6201ZM130.289 9.41895H132.891V24H130.289V9.41895ZM136.355 15.5801H133.85V13.6289H136.355V10.4033H138.956V13.6289H141.461V15.5801H138.956V24H136.355V15.5801Z" fill="#6610F2"/>
</svg>
